<svg xmlns="http://www.w3.org/2000/svg" width="125" height="28" fill="none"><g clip-path="url(#thisdot_labs_logo_svg__a)"><path fill="#1E252E" d="M3.991 2.875H0V.257h11.06v2.618H7.068v12.403H3.991V2.875ZM17.89.257h3.073v6.695h5.338V.257h3.074v15.021h-3.074V9.571h-5.338v5.707h-3.074V.257ZM40.452.257v15.021h-3.074V.257h3.074ZM47.708 11.287h3.116c.108 1.073.855 1.587 1.9 1.587 1.046 0 1.73-.622 1.73-1.587s-.599-1.525-2.627-2.362c-2.977-1.233-4.034-2.65-4.034-4.85 0-2.467 1.792-4.078 4.676-4.078 2.67 0 4.676 1.588 4.676 4.206h-3.117c0-.922-.596-1.545-1.602-1.545-1.025 0-1.517.623-1.517 1.374 0 .902.62 1.427 2.71 2.327 2.99 1.287 3.95 2.638 3.95 4.742 0 2.65-1.879 4.431-4.89 4.431-3.008.006-4.801-1.841-4.971-4.245ZM72.614 15.278h-4.998V.257h4.998c4.846 0 8.113 2.747 8.113 7.512 0 4.785-3.267 7.51-8.113 7.51Zm.02-12.403H70.69v9.785h1.944c2.798 0 4.974-1.63 4.974-4.871 0-3.283-2.176-4.914-4.975-4.914ZM117.932 2.875h-3.992V.257H125v2.618h-3.994v12.403h-3.074V2.875Z"></path><path fill="#F46663" d="M67.784 21.019h1.318v5.322h2.574v1.125h-3.892V21.02ZM87.668 26.51H84.9l-.367.96H83.16l2.594-6.447h1.062l2.594 6.447h-1.375l-.366-.96Zm-2.347-1.104h1.923l-.963-2.504-.96 2.504ZM100.449 21.023h2.227c1.449 0 2.253.79 2.253 1.842 0 .516-.267 1.096-.815 1.344.659.203 1.108.783 1.108 1.465 0 1.17-.733 1.796-2.429 1.796h-2.347v-6.447h.003Zm2.182 1.105h-.861v1.63h.861c.716 0 .98-.302.98-.82 0-.516-.264-.81-.98-.81Zm-.861 2.735v1.502h1.136c.696 0 .955-.277.955-.745 0-.471-.256-.754-.955-.754h-1.136v-.003ZM117.406 22.662c0-1.042.733-1.75 2.063-1.75.614 0 1.247.165 1.721.45l-.403 1.051a2.22 2.22 0 0 0-1.19-.36c-.577 0-.853.212-.853.543 0 .36.239.577 1.108.977 1.123.516 1.659 1.084 1.659 2.052 0 1.188-.806 1.953-2.318 1.953-.667 0-1.383-.194-1.923-.525l.403-1.068c.412.286.972.451 1.466.451.642 0 1.037-.257 1.037-.705 0-.474-.335-.742-1.122-1.085-1.275-.557-1.648-1.15-1.648-1.984ZM97.358 12.309c2.567 0 4.648-2.091 4.648-4.671s-2.081-4.671-4.648-4.671c-2.567 0-4.648 2.091-4.648 4.67 0 2.58 2.081 4.672 4.648 4.672Z"></path><path fill="#9FACCC" d="M104.534.129h-3.827l5.739 7.509-5.739 7.512h3.827l5.739-7.512-5.739-7.51ZM90.182.129h3.826L88.27 7.638l5.738 7.512h-3.826l-5.739-7.512 5.739-7.51Z"></path></g><defs><clipPath id="thisdot_labs_logo_svg__a"><path fill="#fff" d="M0 0h125v28H0z"></path></clipPath></defs></svg>